<svg xmlns="http://www.w3.org/2000/svg" viewBox="0 0 512 512">
  <path fill="#fc0" stroke="#000" stroke-width="20" d="M69 134C13 356 3 469 53 467c224-11 430 27 446-17 16-45-42-68-42-71 1-64 9-38 12-230 5-282-98-63-98-63-72-11-124-16-197-6 0 0-47-206-105 54z"/>
  <path stroke="#000" stroke-width="15" d="m133 152-30 113m-92-22 81 7M0 271l81 8m157-22 112 7m-115 22 112 7m-99-3"/>
  <path fill="#fff" stroke="#000" stroke-width="15" d="m25 285 472 23c7 1 13 4 13 8l-6 115c0 4-6 7-14 6L18 407c-7 0-13-4-13-7l6-116c0-4 6-7 14-6z"/>
  <path d="m29 337 3-14h8l2-11 18-12-5 24h9l-3 14h-9l-7 29-1 9 1 3 4 1h5l-3 14h-8q-8 0-12-4t-3-11l2-14 6-28zm58-8-15-3q2-14 10-21 7-6 16-6 11 1 17 8t6 19q-1 9-6 18l-15 18q-11 10-15 16l28 1-4 17-48-2q2-11 8-20l19-22q11-11 14-16 4-6 4-11t-2-8q-2-3-6-3-8 0-11 15zm57 19-15-2q3-10 10-14 7-5 17-5 10 1 16 6 5 6 5 14l-1 7-4 18-3 17v10l-14-1-1-7-8 6-9 2q-7 0-12-6-4-6-4-15 1-10 7-16 5-5 18-6 11 0 14-2l2-6q0-3-2-5t-6-2q-8-1-10 7zm14 18-4 1q-11 1-14 3-4 3-4 7t2 6q2 2 5 2 3 1 6-1l5-5q2-3 3-10zm37-35 15 1-3 13q8-15 18-14l7 2-7 15-4-1q-4 0-7 2-5 4-8 10-3 5-6 20l-5 22-15-1zm68 47 15 3q-4 13-12 18-7 6-17 6-10-1-16-9-7-8-6-22 1-13 6-22 5-10 12-15 8-5 17-4 9 0 15 7 6 6 6 17l-14 1q-1-11-9-12-4 0-7 3-4 3-7 11t-4 17q0 6 2 10 3 3 6 3 4 0 7-3 4-3 6-9zm26 9 15 1-4 18-15-1zm42-49h14l-2 9 11-7 10-2q7 0 11 5 3 5 3 13l-2 14-9 39-15-1 8-39 2-10q1-4-1-6t-5-2l-6 2q-5 3-8 8l-5 18-6 28-16-1zm108 46-39-2v2q0 6 3 11 3 4 7 4 8 1 13-9l14 4q-5 10-12 14-7 5-15 5-11-1-18-10t-7-24q1-16 10-27 9-12 24-11 10 0 16 8t5 23l-1 12zm-13-12 1-2q0-8-3-12t-7-4q-5 0-9 4t-6 12zm24-14 3-14h7l3-11 18-12-6 24h10l-3 14h-10l-6 28-2 10 1 3 4 1h5l-3 14h-8q-8 0-12-4-3-4-3-11l3-14 6-28z"/>
  <path fill="#fc0" stroke="#000" stroke-width="20" d="m236 156-29 114m-95 9c-17 23 23 17 27 14 3-3 6-11 3-5-5 10 47 18 44-9"/>
</svg>
