<svg xmlns="http://www.w3.org/2000/svg" xml:space="preserve" viewBox="0 0 30 30">
	<g stroke="#000" stroke-width=".30">
		<path fill="#fc0" d="M 4.4 9.6 c -2.9 12.4 -3.5 18.8 -0.8 18.5 c 12.4 -0.5 23.8 1.6 24.9 -0.8 c 0.8 -2.6 -2.4 -4 -2.4 -4 c 0 -3.7 0.5 -2.1 0.5 -12.7 c 0.3 -15.9 -5.3 -3.7 -5.3 -3.7 c -4 -0.5 -6.9 -0.8 -11.1 -0.3 c 0 0 -2.4 -11.4 -5.8 2.9 z"/>
		<path fill="#fc0" d="M 8.1 10.7 l -1.6 6.3 M 13.6 10.9 l -1.6 6.3 M 1.2 15.7 l 4.5 0.5 M 0.7 17.3 l 4.5 0.5 M 13.9 16.5 l 6.1 0.5 M 13.6 18.1 l 6.3 0.5"/>
		<path fill="#fc0" d="M 6.8 17.8 c -0.7 1.3 1.6 1.2 1.8 0.5 c -0.2 0.7 2.1 0.9 2.4 -0.2"/>
	</g>
</svg>
