<?xml version="1.0" encoding="UTF-8" standalone="no"?>
<!-- Created with Inkscape (http://www.inkscape.org/) -->

<svg
   width="30mm"
   height="30mm"
   viewBox="0 0 30 29.999999"
   version="1.1"
   id="svg1"
   xml:space="preserve"
   inkscape:version="1.4.2 (f4327f4, 2025-05-13)"
   sodipodi:docname="favicon.svg"
   inkscape:export-filename="npp_ohayo.png"
   inkscape:export-xdpi="240"
   inkscape:export-ydpi="240"
   xmlns:inkscape="http://www.inkscape.org/namespaces/inkscape"
   xmlns:sodipodi="http://sodipodi.sourceforge.net/DTD/sodipodi-0.dtd"
   xmlns="http://www.w3.org/2000/svg"
   xmlns:svg="http://www.w3.org/2000/svg"><sodipodi:namedview
     id="namedview1"
     pagecolor="#ffffff"
     bordercolor="#000000"
     borderopacity="0.25"
     inkscape:showpageshadow="2"
     inkscape:pageopacity="0.0"
     inkscape:pagecheckerboard="0"
     inkscape:deskcolor="#d1d1d1"
     inkscape:document-units="mm"
     inkscape:zoom="3.2836841"
     inkscape:cx="39.741947"
     inkscape:cy="58.927715"
     inkscape:window-width="1612"
     inkscape:window-height="1244"
     inkscape:window-x="1224"
     inkscape:window-y="506"
     inkscape:window-maximized="0"
     inkscape:current-layer="g2" /><defs
     id="defs1"><inkscape:path-effect
       effect="fillet_chamfer"
       id="path-effect3"
       is_visible="true"
       lpeversion="1"
       nodesatellites_param="F,0,0,1,0,0,0,1 @ F,0,0,1,0,0,0,1 @ F,0,0,1,0,0,0,1 @ F,0,0,1,0,0,0,1 @ F,0,0,1,0,0,0,1 @ F,0,0,1,0,0,0,1 @ F,0,0,1,0,0,0,1 @ F,0,0,1,0,0,0,1"
       radius="0"
       unit="px"
       method="auto"
       mode="F"
       chamfer_steps="1"
       flexible="false"
       use_knot_distance="true"
       apply_no_radius="true"
       apply_with_radius="true"
       only_selected="false"
       hide_knots="false" /></defs><g
     inkscape:label="Layer 1"
     inkscape:groupmode="layer"
     id="layer1"><g
       id="g1"
       transform="matrix(0.26458333,0,0,0.26458333,-49.346191,-33.006039)"
       inkscape:label="npp"><path
         fill="#ffcc00"
         stroke="#000000"
         d="m 206.04536,160.39093 c -11,47 -13,71 -3,70 47,-2 90,6 94,-3 3,-10 -9,-15 -9,-15 0,-14 2,-8 2,-48 1,-60 -20,-14 -20,-14 -15,-2 -26,-3 -42,-1 0,0 -9,-43 -22,11 z"
         id="path1"
         style="display:inline;stroke-width:2;stroke-dasharray:none"
         inkscape:label="body" /><g
         id="g2"
         style="stroke-width:2;stroke-dasharray:none"
         transform="translate(3.0453589,-0.60907599)"
         inkscape:label="face"><rect
           style="stroke-width:1.00157;stroke-dasharray:none;fill:#ffcc00;fill-opacity:1;stroke:none;stroke-linejoin:round;stroke-opacity:1"
           id="rect15"
           width="27.715164"
           height="31.032623"
           x="213.89035"
           y="160.72215"
           rx="0"
           ry="0"
           transform="translate(-3.0453601,0.60908001)" /><path
           fill="#ffcc00"
           stroke="#000000"
           d="m 217,165 -6,24 m -20,-5 17,2 m -19,4 17,2 m 33,-5 23,2 m -24,-23 -6,24"
           id="path2"
           style="stroke-width:2;stroke-dasharray:none" /><path
           fill="#ffcc00"
           stroke="#000000"
           d="m 212,192 c -3,5 5,4 6,3 1,-1 1,-3 1,-1 -1,2 10,3 9,-2 m 10,1 24,2"
           id="path4"
           sodipodi:nodetypes="cscccc"
           style="stroke-width:2;stroke-dasharray:none" /></g><path
         style="display:none;fill:#ffcc00;stroke:#000000;stroke-width:2;stroke-linejoin:round;stroke-dasharray:none;stroke-opacity:1"
         d="m 243.45351,199.6631 c -34.7171,0.60907 -13.04279,31.65486 5.22937,31.04579"
         id="path5"
         sodipodi:nodetypes="cc"
         transform="translate(-1.1811023e-6)"
         inkscape:label="hand" /></g></g></svg>
